<svg width="48" height="48" viewBox="0 0 48 48" fill="none" xmlns="http://www.w3.org/2000/svg">
<path fill-rule="evenodd" clip-rule="evenodd" d="M26.3604 8.90193C33.6784 10.0376 39.31 16.391 39.31 24.0185C39.31 32.4454 32.4386 39.3173 24.013 39.3173C15.5861 39.3173 8.71383 32.445 8.71383 24.0185V5.49802C8.01254 6.07816 7.34476 6.69741 6.71383 7.35242C2.55693 11.668 0 17.5361 0 24.0007C0 37.2565 10.7448 48.0023 23.9993 48.0023C37.257 48.0023 48 37.2565 48 24.0007C48.0009 10.7453 37.2575 0 23.9998 0C22.2132 0 20.4737 0.200899 18.7988 0.571583V24.0176C18.7988 26.8916 21.1405 29.2337 24.0135 29.2337C26.8861 29.2337 29.2287 26.8911 29.2287 24.0176C29.2287 21.2627 27.0723 18.9946 24.3608 18.8143V14.6384C25.0486 14.6636 25.7179 14.7634 26.3608 14.93C30.4008 15.9766 33.4001 19.6583 33.4001 24.0181C33.4001 24.0179 33.4001 24.0182 33.4001 24.0181C33.3998 29.1882 29.1828 33.406 24.0135 33.406C24.0133 33.406 24.0137 33.406 24.0135 33.406C18.8415 33.4057 14.626 29.1883 14.626 24.0181V1.90101C14.0325 2.15271 13.4545 2.43233 12.8866 2.72979V24.0181C12.887 30.1472 17.8862 35.145 24.013 35.145C24.0129 35.145 24.0132 35.145 24.013 35.145C30.1419 35.1448 35.1395 30.147 35.1395 24.0185C35.1395 24.0184 35.1395 24.0187 35.1395 24.0185C35.1393 18.0301 30.3636 13.12 24.4245 12.9015C24.4031 12.9007 24.3818 12.9 24.3604 12.8994V8.72527C25.0386 8.74059 25.7063 8.80041 26.3604 8.90193ZM22.3604 14.8382V6.67958L24.4056 6.72578C33.7554 6.93697 41.31 14.6192 41.31 24.0185C41.31 33.5498 33.5433 41.3173 24.013 41.3173C14.4816 41.3173 6.71383 33.5496 6.71383 24.0185V10.3914C3.76044 14.1371 2 18.8632 2 24.0007C2 36.1521 11.8496 46.0023 23.9993 46.0023C36.1522 46.0023 46 36.1522 46 24.0007C46.0008 11.8499 36.1529 2 23.9998 2C22.913 2 21.8445 2.08115 20.7988 2.23541V24.0176C20.7988 25.7875 22.2455 27.2337 24.0135 27.2337C25.7813 27.2337 27.2287 25.7868 27.2287 24.0176C27.2287 22.3243 25.8975 20.9209 24.2281 20.8099L22.3608 20.6857L22.3604 14.8382Z" fill="#9DE311"/>
</svg>
