<svg width="48" height="41" viewBox="0 0 48 41" fill="none" xmlns="http://www.w3.org/2000/svg">
<path d="M47 1H1V40H47V1Z" stroke="#9DE311" stroke-width="2" stroke-miterlimit="10" stroke-linejoin="round"/>
<path d="M1 7H47" stroke="#9DE311" stroke-width="2" stroke-miterlimit="10" stroke-linejoin="round"/>
<path d="M4 4H6" stroke="#9DE311" stroke-width="2" stroke-miterlimit="10" stroke-linejoin="round"/>
<path d="M8 4H10" stroke="#9DE311" stroke-width="2" stroke-miterlimit="10" stroke-linejoin="round"/>
<path d="M21.9999 22C20.7589 22 20.1199 22.642 19.9999 24C19.9929 24.081 19.9999 27 19.9999 27C19.9999 29.31 21.7999 31 23.9999 31C26.1999 31 27.9999 29.31 27.9999 27C27.9999 27 28.0069 24.081 27.9999 24C27.8799 22.642 27.2409 22 25.9999 22" stroke="#9DE311" stroke-width="2" stroke-miterlimit="10" stroke-linecap="round" stroke-linejoin="round"/>
<path d="M27 22.02V20C27 18.996 25.472 18 24 18C22.528 18 21 18.996 21 20V22.02" stroke="#9DE311" stroke-width="2" stroke-miterlimit="10" stroke-linecap="round" stroke-linejoin="round"/>
<path d="M20 23.5L18 20L16 19L15 16" stroke="#9DE311" stroke-width="2" stroke-miterlimit="10" stroke-linecap="round" stroke-linejoin="round"/>
<path d="M20 28L18 31V33L16 35" stroke="#9DE311" stroke-width="2" stroke-miterlimit="10" stroke-linecap="round" stroke-linejoin="round"/>
<path d="M20 25H17L16 28L14 29" stroke="#9DE311" stroke-width="2" stroke-miterlimit="10" stroke-linecap="round" stroke-linejoin="round"/>
<path d="M28 23.5L30 20L32 19L33 16" stroke="#9DE311" stroke-width="2" stroke-miterlimit="10" stroke-linecap="round" stroke-linejoin="round"/>
<path d="M28 28L30 31V33L32 35" stroke="#9DE311" stroke-width="2" stroke-miterlimit="10" stroke-linecap="round" stroke-linejoin="round"/>
<path d="M28 25H31L32 28L34 29" stroke="#9DE311" stroke-width="2" stroke-miterlimit="10" stroke-linecap="round" stroke-linejoin="round"/>
<path d="M26 18L27 13L29 11" stroke="#9DE311" stroke-width="2" stroke-miterlimit="10" stroke-linecap="round" stroke-linejoin="round"/>
<path d="M22 18L21 13L19 11" stroke="#9DE311" stroke-width="2" stroke-miterlimit="10" stroke-linecap="round" stroke-linejoin="round"/>
</svg>
