<svg width="44" height="48" viewBox="0 0 44 48" fill="none" xmlns="http://www.w3.org/2000/svg">
<path d="M35 19V13.288C35 7.38699 29.078 1 21.5 1C13.922 1 8 7.38699 8 13.288V16" stroke="#9DE311" stroke-width="2" stroke-miterlimit="10"/>
<path d="M31.0002 20V22.035C31.0002 24.927 29.8212 28.047 26.9932 29.931" stroke="#9DE311" stroke-width="2" stroke-miterlimit="10"/>
<path d="M16 7C16 12.609 27.34 20 33 20" stroke="#9DE311" stroke-width="2" stroke-miterlimit="10"/>
<path d="M16 12C13.596 13.002 11 15.645 11 19V22C11.022 25.52 13.615 29.036 17.686 30.849" stroke="#9DE311" stroke-width="2" stroke-miterlimit="10"/>
<path d="M25 34C25 35.104 24.104 36 23 36H22C20.896 36 20 35.104 20 34C20 32.896 20.896 32 22 32H23C24.104 32 25 32.896 25 34Z" stroke="#9DE311" stroke-width="2" stroke-miterlimit="10"/>
<path d="M24 33.9999H25.032C30.537 33.9999 34.982 30.1749 34.982 24.9429" stroke="#9DE311" stroke-width="2" stroke-miterlimit="10"/>
<path d="M37 16H35V25H37C38.104 25 39 24.104 39 23V18C39 16.896 38.104 16 37 16Z" stroke="#9DE311" stroke-width="2" stroke-miterlimit="10"/>
<path d="M6 16H8V25H6C4.896 25 4 24.104 4 23V18C4 16.896 4.896 16 6 16Z" stroke="#9DE311" stroke-width="2" stroke-miterlimit="10"/>
<path d="M15 29V37" stroke="#9DE311" stroke-width="2" stroke-miterlimit="10"/>
<path d="M11.9994 39.0024L18.999 46.002L21.9992 43.0017L14.9997 36.0021L11.9994 39.0024Z" stroke="#9DE311" stroke-width="2" stroke-miterlimit="10"/>
<path d="M28.9976 35.9994L21.998 42.999L24.9983 45.9992L31.9978 38.9997L28.9976 35.9994Z" stroke="#9DE311" stroke-width="2" stroke-miterlimit="10"/>
<path d="M12 39L6.316 40.263C4.258 40.721 2.592 42.224 1.925 44.223L1 47" stroke="#9DE311" stroke-width="2" stroke-miterlimit="10"/>
<path d="M32 39L37.684 40.263C39.742 40.721 41.408 42.224 42.075 44.223L43 47" stroke="#9DE311" stroke-width="2" stroke-miterlimit="10"/>
</svg>
