<svg width="48" height="43" viewBox="0 0 48 43" fill="none" xmlns="http://www.w3.org/2000/svg">
<path d="M25 38H1V1H45V19" stroke="#9DE311" stroke-width="2" stroke-miterlimit="10"/>
<path d="M1 7H45" stroke="#9DE311" stroke-width="2" stroke-miterlimit="10"/>
<path d="M4 4H6" stroke="#9DE311" stroke-width="2" stroke-miterlimit="10"/>
<path d="M7 4H9" stroke="#9DE311" stroke-width="2" stroke-miterlimit="10"/>
<path d="M37 42C42.5228 42 47 37.5228 47 32C47 26.4772 42.5228 22 37 22C31.4772 22 27 26.4772 27 32C27 37.5228 31.4772 42 37 42Z" stroke="#9DE311" stroke-width="2" stroke-miterlimit="10"/>
<path d="M37 22V18" stroke="#9DE311" stroke-width="2" stroke-miterlimit="10"/>
<path d="M40 18H34" stroke="#9DE311" stroke-width="2" stroke-miterlimit="10"/>
<path d="M31 24L29 22" stroke="#9DE311" stroke-width="2" stroke-miterlimit="10"/>
<path d="M43 24L45 22" stroke="#9DE311" stroke-width="2" stroke-miterlimit="10"/>
<path d="M37 26V34" stroke="#9DE311" stroke-width="2" stroke-miterlimit="10"/>
<path d="M20 11H5V24H20V11Z" stroke="#9DE311" stroke-width="2" stroke-miterlimit="10"/>
<path d="M4 29H21" stroke="#9DE311" stroke-width="2" stroke-miterlimit="10"/>
<path d="M4 33H14" stroke="#9DE311" stroke-width="2" stroke-miterlimit="10"/>
</svg>
