<svg width="69" height="42" viewBox="0 0 69 42" fill="none" xmlns="http://www.w3.org/2000/svg">
<path fill-rule="evenodd" clip-rule="evenodd" d="M13.3848 5.58431L13.4373 42H18.9347L18.9347 0H5.59656V5.58431H13.3848ZM7.59656 3.58431H15.3819L15.4344 40H16.9347L16.9347 2H7.59656V3.58431ZM57.0284 20.6964L57.058 21.4617H62.5555L62.526 20.3543L62.4557 19.2637L62.3278 18.184L62.1577 17.1286L61.9409 16.0904L61.6708 15.0706L61.3666 14.074L61.0074 13.1018L60.616 12.1525L60.1759 11.2321L59.695 10.3305L59.1802 9.46361L58.6171 8.6262L58.0257 7.81891L57.392 7.04068L56.7242 6.29767L56.0219 5.58971L55.2884 4.92357L54.521 4.28654L53.7188 3.69096L52.8914 3.13696L52.0302 2.62377L51.1452 2.15237L50.2249 1.72777L49.2884 1.34415L48.321 1.00814L47.3236 0.719587L46.311 0.484113L45.2733 0.294903L44.2187 0.159391L43.1403 0.0767886L42.0386 0.0534902L40.9423 0.0824367L39.8639 0.165621L38.8038 0.313093L37.772 0.507702L36.7581 0.75497L35.7678 1.05536L34.8012 1.4094L33.857 1.80464L32.949 2.24647L32.058 2.73611L31.2029 3.26657L30.3767 3.83848L29.5793 4.45216L28.8121 5.1002L28.0786 5.78984L27.3822 6.50939L26.713 7.26419L26.0868 8.05425L25.4947 8.86803L24.9374 9.7115L24.4225 10.584L23.9422 11.4803L23.5083 12.3997L23.1156 13.3373L22.7636 14.3048L22.4532 15.2831L22.1893 16.2796L21.9728 17.2942L21.8024 18.3196L21.674 19.3578L21.6033 20.4013L21.5739 21.4617L21.6033 22.5129L21.6856 23.5487L21.8145 24.5624L21.9961 25.5666L22.23 26.5394L22.5118 27.4998L22.8338 28.4322L23.2033 29.3392L23.6197 30.224L24.0759 31.0843L24.5746 31.916L25.114 32.7255L25.6879 33.4977L26.2975 34.2449L26.9483 34.9603L27.6277 35.6413L28.3426 36.2908L29.0868 36.9062L29.8607 37.4866L30.6634 38.0299L31.4963 38.5382L32.3515 39.0027L33.2362 39.4328L34.1388 39.8185L35.065 40.1644L36.0139 40.4719L36.975 40.732L37.9595 40.9424L38.9559 41.115L39.9757 41.2311L41.0009 41.3096L42.0386 41.3314H69V35.7482H42.0386L41.2413 35.7325L40.4561 35.6664L39.6824 35.5663L38.9269 35.4312L38.188 35.252L37.4616 35.0418L36.7581 34.8004L36.0728 34.518L35.4042 34.2104L34.7543 33.8683L34.1272 33.5041L33.5233 33.1086L32.9432 32.6818L32.3809 32.2391L31.8411 31.7685L31.3316 31.2725L30.8455 30.761L30.382 30.2306L29.9483 29.6751L29.5385 29.1102L29.1632 28.5264L28.8121 27.9299L28.4892 27.318L28.2021 26.6997L27.9444 26.0689L27.7158 25.4254L27.5227 24.7757L27.3639 24.1168L27.2408 23.4607L27.147 22.7953L27.0951 22.1299L27.0713 21.4617L27.0889 20.72L27.1353 19.9827L27.2173 19.2459L27.3289 18.5145L27.4702 17.7895L27.6457 17.0698L27.8447 16.3622L28.0786 15.6605L28.3426 14.9711L28.6359 14.2923L28.958 13.6324L29.3154 12.9897L29.6906 12.3589L30.1012 11.7455L30.5405 11.1561L31.003 10.5903L31.5017 10.0474L32.0236 9.52258L32.5679 9.02726L33.1423 8.56133L33.746 8.12502L34.3735 7.71853L35.0297 7.34123L35.7092 6.9989L36.4124 6.69216L37.1449 6.42076L37.9009 6.18529L38.6805 5.99072L39.4833 5.83777L40.3095 5.72547L41.1655 5.65483L42.0386 5.63693L42.9118 5.65483L43.7611 5.7138L44.5823 5.81958L45.3844 5.96709L46.1644 6.15024L46.9136 6.38006L47.6409 6.6395L48.3446 6.94022L49.023 7.27599L49.6738 7.64161L50.3016 8.04267L50.9052 8.47329L51.4795 8.93323L52.0243 9.42287L52.5471 9.93514L53.0445 10.4718L53.5082 11.0376L53.9466 11.6277L54.3568 12.2349L54.7442 12.8595L55.1011 13.5083L55.4245 14.1689L55.7223 14.8525L55.9925 15.5428L56.2325 16.2506L56.4372 16.9694L56.6197 17.7008L56.7664 18.4384L56.8879 19.1868L56.977 19.9415L57.0284 20.6964ZM67 37.7482H42.0189L41.1376 37.7308L40.2438 37.6556L39.378 37.5436L38.5148 37.3893L37.6741 37.1854L36.8588 36.9494L36.0518 36.6726L35.2735 36.3518L34.5198 36.0051L33.7858 35.6187L33.0763 35.2066L32.3819 34.7518L31.7317 34.2735L31.1043 33.7795L30.4853 33.2398L29.9087 32.6784L29.3671 32.1085L28.8397 31.5051L28.3501 30.8781L27.8865 30.239L27.4597 29.5749L27.0649 28.9045L26.6966 28.2064L26.3683 27.4995L26.0753 26.7822L25.8136 26.0454L25.5906 25.2952L25.4076 24.5357L25.2668 23.7849L25.1579 23.013L25.0978 22.2433L25.0705 21.4736L25.0904 20.6334L25.1423 19.8091L25.2341 18.9843L25.358 18.1722L25.5161 17.3611L25.7109 16.562L25.9323 15.7749L26.1951 14.9863L26.4899 14.2164L26.8184 13.4564L27.1841 12.7072L27.5816 11.9922L27.999 11.2906L28.4673 10.5909L28.9637 9.92501L29.4911 9.27977L30.0556 8.66525L30.6406 8.07695L31.2639 7.50984L31.9256 6.97301L32.6159 6.47415L33.3306 6.01112L34.0806 5.57992L34.8588 5.18785L35.6646 4.83637L36.4997 4.52698L37.3609 4.25871L38.2508 4.0366L39.1613 3.86315L40.0924 3.73659L41.0626 3.65652L42.0386 3.63651L43.0016 3.65625L43.9583 3.72268L44.8911 3.84283L45.7941 4.0089L46.6869 4.21852L47.5431 4.48121L48.3705 4.77633L49.1818 5.12301L49.957 5.50671L50.7028 5.92571L51.4214 6.3848L52.112 6.87746L52.7741 7.40771L53.3932 7.96414L53.9812 8.5403L54.5527 9.1569L55.0852 9.80661L55.5788 10.471L56.0359 11.1477L56.4714 11.8498L56.8764 12.5862L57.2403 13.3294L57.571 14.0883L57.8717 14.8569L58.1425 15.6553L58.3697 16.4533L58.5718 17.2633L58.7349 18.0829L58.869 18.9093L58.9342 19.4617H60.4643L60.4633 19.4458L60.3466 18.461L60.1905 17.4923L59.994 16.5512L59.747 15.6188L59.4705 14.7131L59.1442 13.8298L58.7879 12.9656L58.3906 12.1345L57.952 11.3123L57.4893 10.5331L56.9799 9.77567L56.4425 9.04206L55.8719 8.34137L55.2696 7.67121L54.6387 7.03522L53.9767 6.43403L53.2853 5.86005L52.5656 5.32574L51.8224 4.82812L51.0476 4.36644L50.2554 3.94444L49.4265 3.56201L48.5807 3.21556L47.7146 2.91471L46.8189 2.65558L45.9049 2.44304L44.9663 2.27189L44.0148 2.14963L43.0427 2.07517L42.0438 2.05405L41.0457 2.0804L40.0788 2.15499L39.1272 2.28737L38.1946 2.46327L37.2857 2.68492L36.4025 2.95281L35.5316 3.27178L34.6814 3.62773L33.8687 4.02314L33.0675 4.46346L32.2999 4.93963L31.5565 5.45421L30.8351 6.0094L30.1433 6.59374L29.483 7.2146L28.8498 7.86889L28.2461 8.54972L27.6798 9.26426L27.1385 10.0082L26.6341 10.7717L26.1658 11.5651L25.7291 12.38L25.336 13.2131L24.9788 14.066L24.6573 14.9495L24.3741 15.8419L24.1351 16.7446L23.9383 17.6671L23.7821 18.6065L23.6657 19.5482L23.6014 20.4966L23.5747 21.4615L23.6011 22.4057L23.6756 23.3432L23.792 24.2582L23.954 25.1545L24.163 26.0238L24.4176 26.8915L24.7065 27.728L25.0355 28.5356L25.409 29.3292L25.8182 30.1008L26.2654 30.8466L26.7498 31.5737L27.2662 32.2684L27.8132 32.9389L28.3967 33.5804L29.009 34.1941L29.653 34.7793L30.3247 35.3347L31.0218 35.8575L31.7454 36.3472L32.4952 36.8047L33.2665 37.2237L34.0669 37.6128L34.882 37.9611L35.7234 38.2754L36.5837 38.5542L37.4456 38.7874L38.3393 38.9784L39.2399 39.1344L40.1653 39.2397L41.0983 39.3112L42.0594 39.3314H67V37.7482ZM41.3237 14.3755L41.6748 14.3518L42.0383 14.3401L42.402 14.3518L42.7594 14.3755L43.0985 14.4224L43.4387 14.4867L43.7608 14.5637L44.0779 14.658L44.3822 14.7699L44.6809 14.8995L44.9627 15.0416L45.2374 15.2008L45.507 15.3718L45.7602 15.5548L46.0003 15.7547L46.2342 15.9611L46.4575 16.1855L46.6681 16.4216L46.8617 16.6689L47.0487 16.9286L47.2254 17.1938L47.389 17.4763L47.5404 17.7656L47.6763 18.06L47.8043 18.3669L47.9165 18.6853L48.0149 19.0095L48.104 19.3397L48.1804 19.6763L48.2381 20.0239L48.2907 20.3715L48.3268 20.7309L48.3441 21.0909L48.3502 21.4616H53.846L53.8353 20.7962L53.7883 20.1476L53.7061 19.5053L53.6013 18.868L53.4656 18.2489L53.3016 17.6472L53.1079 17.0524L52.8911 16.4741L52.6448 15.9085L52.3764 15.3599L52.0892 14.8287L51.7726 14.3101L51.4321 13.8151L51.0748 13.3372L50.7004 12.8773L50.3012 12.4412L49.8797 12.0229L49.4458 11.6276L48.995 11.25L48.5253 10.9025L48.04 10.5722L47.5405 10.2717L47.0318 9.99399L46.5044 9.74032L45.9647 9.51665L45.4199 9.32216L44.8573 9.1511L44.2887 9.01002L43.7144 8.90321L43.1284 8.82094L42.5363 8.77376L41.9387 8.75573L41.3237 8.77376L40.7137 8.82094L40.1159 8.89781L39.5301 9.01002L38.9557 9.14479L38.3931 9.30422L37.8483 9.4987L37.3085 9.71698L36.7874 9.95939L36.2772 10.2301L35.7855 10.5189L35.3105 10.8375L34.8534 11.1739L34.4142 11.5334L33.9866 11.9107L33.5822 12.3117L33.2007 12.7301L32.8317 13.1661L32.4918 13.6204L32.1692 14.0919L31.8652 14.5816L31.5895 15.0831L31.3377 15.5955L31.1088 16.1266L30.904 16.6689L30.7219 17.2235L30.5698 17.7893L30.4464 18.3613L30.3468 18.945L30.2828 19.5343L30.2416 20.1362L30.2295 20.7435L30.2477 21.3561L30.2881 21.9573L30.3646 22.5536L30.4701 23.1372L30.5985 23.7085L30.7573 24.2705L30.9389 24.8165L31.1495 25.3594L31.3844 25.8835L31.642 26.392L31.9292 26.8879L32.2343 27.3713L32.5616 27.8296L32.9082 28.2784L33.2772 28.7085L33.6638 29.1163L34.0739 29.5116L34.5023 29.8821L34.9416 30.2305L35.4041 30.5599L35.8795 30.8675L36.3716 31.1499L36.881 31.4105L37.4026 31.6522L37.9363 31.8563L38.4868 32.0446L39.0441 32.2047L39.6121 32.3364L40.1927 32.4399L40.7841 32.5123L41.3816 32.5591L41.9917 32.5781H69L68.9998 27.0449H42.0385L41.7451 27.0355L41.4463 27.0168L41.1537 26.9821L40.8603 26.9349L40.5731 26.8755L40.2861 26.7968L39.9988 26.7153L39.7235 26.6149L39.4483 26.5081L39.1782 26.3856L38.9142 26.2569L38.657 26.1158L38.4047 25.9621L38.1591 25.7958L37.9244 25.6264L37.702 25.4408L37.4851 25.2528L37.2736 25.0488L37.0806 24.8414L36.8929 24.6217L36.7171 24.3989L36.5534 24.1637L36.4067 23.9219L36.2716 23.6741L36.1482 23.4197L36.0369 23.1531L35.9495 22.8895L35.8677 22.6132L35.8091 22.3337L35.7622 22.0453L35.7389 21.7564L35.7265 21.4616L35.7326 21.0909L35.7559 20.7309L35.7913 20.3715L35.8378 20.0239L35.8964 19.6763L35.9729 19.3397L36.0601 19.0095L36.1602 18.6853L36.2771 18.3669L36.4005 18.06L36.5409 17.7656L36.6938 17.4763L36.8513 17.1938L37.0274 16.9286L37.2148 16.6689L37.4148 16.4216L37.6254 16.1855L37.8424 15.9611L38.0764 15.7547L38.3165 15.5548L38.5746 15.3718L38.8385 15.2008L39.114 15.0416L39.4013 14.8995L39.6946 14.7699L39.9987 14.658L40.3154 14.5637L40.6434 14.4867L40.9775 14.4224L41.3237 14.3755ZM66.9999 29.0449H42.0063L41.6506 29.0335L41.266 29.0094L40.8771 28.9633L40.4986 28.9024L40.1056 28.8211L39.749 28.7233L39.3824 28.6194L39.0191 28.4868L38.673 28.3526L38.3266 28.1955L37.9944 28.0335L37.6552 27.8474L37.3231 27.6451L37.0131 27.4352L36.697 27.2071L36.4063 26.9644L36.1349 26.7293L35.8461 26.4507L35.5876 26.1728L35.347 25.8913L35.1097 25.5905L34.876 25.2546L34.6728 24.9198L34.4928 24.5897L34.3243 24.2422L34.1622 23.8541L34.0409 23.4882L33.9269 23.1032L33.8423 22.6997L33.7751 22.2864L33.7423 21.8788L33.7258 21.4871L33.7337 21.0098L33.7622 20.5684L33.8043 20.1407L33.86 19.7249L33.9336 19.2883L34.0303 18.8626L34.1369 18.4588L34.2647 18.0451L34.4101 17.6489L34.5683 17.2556L34.7535 16.8674L34.9361 16.522L35.1422 16.1521L35.3829 15.7897L35.6252 15.454L35.89 15.1265L36.1597 14.8242L36.4597 14.5139L36.7747 14.236L37.0965 13.968L37.4521 13.716L37.7937 13.4946L38.1694 13.2775L38.5535 13.0875L38.9444 12.9149L39.3674 12.7592L39.8012 12.6301L40.2255 12.5305L40.6538 12.4479L41.1221 12.3845L41.5755 12.354L42.0383 12.3391L42.5001 12.354L42.9626 12.3845L43.4215 12.448L43.8574 12.5304L44.2786 12.6311L44.7088 12.759L45.1261 12.9126L45.5297 13.0876L45.9151 13.2819L46.2749 13.4904L46.6294 13.7153L46.9873 13.9739L47.3021 14.2361L47.6062 14.5045L47.9137 14.8136L48.2033 15.1383L48.4611 15.4675L48.6929 15.7893L48.9245 16.137L49.1412 16.511L49.3355 16.8824L49.5077 17.2556L49.6719 17.649L49.8175 18.0623L49.9377 18.4583L50.0454 18.8576L50.1437 19.2908L50.1721 19.4616H51.6721L51.6364 19.2447L51.5227 18.7263L51.3848 18.2201L51.2198 17.7134L51.0367 17.2251L50.8288 16.7476L50.5978 16.2754L50.3548 15.8261L50.0939 15.3986L49.8067 14.9811L49.4978 14.5679L49.186 14.185L48.8582 13.8269L48.5012 13.4725L48.1297 13.1341L47.7571 12.822L47.3674 12.5338L46.961 12.2571L46.5453 12.007L46.1186 11.7741L45.6875 11.5667L45.2451 11.3834L44.7924 11.2218L44.3252 11.0797L43.8646 10.9655L43.3923 10.8776L42.9098 10.8099L42.4266 10.7714L41.9378 10.7566L41.4302 10.7715L40.9184 10.8111L40.4319 10.8736L39.9468 10.9666L39.4571 11.0815L39.0026 11.2103L38.5596 11.3684L38.1057 11.5519L37.6785 11.7507L37.2527 11.9766L36.8498 12.2132L36.4608 12.4741L36.0804 12.7541L35.7096 13.0576L35.3535 13.3718L35.0261 13.6965L34.7034 14.0504L34.3971 14.4123L34.1186 14.7846L33.8449 15.1846L33.5923 15.5915L33.3643 16.0063L33.1547 16.4329L32.9636 16.8762L32.7905 17.3346L32.6391 17.7955L32.5142 18.26L32.4106 18.7406L32.3285 19.2215L32.2754 19.7106L32.2402 20.2244L32.2301 20.7337L32.2457 21.2593L32.2795 21.7629L32.3418 22.2483L32.4306 22.7397L32.538 23.217L32.6695 23.6828L32.8212 24.1387L32.9956 24.5882L33.19 25.0221L33.4008 25.4382L33.6409 25.8526L33.8951 26.2555L34.1673 26.6366L34.4597 27.0152L34.7629 27.3686L35.0844 27.7078L35.423 28.0342L35.7783 28.3415L36.1438 28.6313L36.528 28.9049L36.9213 29.1594L37.3254 29.3913L37.7572 29.6122L38.1812 29.8087L38.6174 29.9755L39.0869 30.1361L39.5464 30.2681L40.0139 30.3765L40.49 30.4614L40.9838 30.5219L41.4908 30.5616L42.0227 30.5781H66.9999L66.9999 29.0449ZM7.54981 12.2396V40H9.04334L8.99667 10.6561H2V12.2396H7.54981ZM0 8.65615H10.9935L11.0465 42H5.54981V14.2396H0V8.65615Z" fill="#9DE311"/>
</svg>
