<svg width="24" height="24" viewBox="0 0 24 24" fill="none" xmlns="http://www.w3.org/2000/svg">
<path fill-rule="evenodd" clip-rule="evenodd" d="M12 24C18.6274 24 24 18.6274 24 12C24 5.37258 18.6274 0 12 0C5.37258 0 0 5.37258 0 12C0 18.6274 5.37258 24 12 24ZM13.2373 8.56661L5.15466 11.8959C3.73333 12.4506 4.56667 12.9719 4.56667 12.9719C4.56667 12.9719 5.78 13.3893 6.82 13.6999C7.86133 14.0133 8.416 13.6666 8.416 13.6666L13.3053 10.3706C15.0387 9.19061 14.624 10.1613 14.2067 10.5786C13.3067 11.4799 11.816 12.9026 10.5667 14.0466C10.012 14.5319 10.288 14.9493 10.532 15.1573C11.2381 15.7539 12.8979 16.8383 13.6537 17.3321C13.8641 17.4696 14.0045 17.5613 14.0347 17.5839C14.208 17.7239 15.18 18.3479 15.7693 18.2093C16.3587 18.0706 16.428 17.2733 16.428 17.2733L17.2947 11.8279C17.3663 11.3551 17.4378 10.8915 17.5051 10.4553C17.6993 9.1953 17.8582 8.16448 17.884 7.80395C17.9893 6.62395 16.74 7.10928 16.74 7.10928C16.74 7.10928 14.0347 8.21995 13.2373 8.56661Z" fill="white"/>
</svg>
