<svg width="24" height="24" viewBox="0 0 24 24" fill="none" xmlns="http://www.w3.org/2000/svg">
<g clip-path="url(#clip0_50_20)">
<g clip-path="url(#clip1_50_20)">
<path d="M23.0734 7.14933C22.4748 5.75067 21.6108 4.48933 20.5454 3.43067C19.4774 2.37067 18.2068 1.51333 16.7974 0.92C15.3868 0.328 13.8388 0 12.2134 0C10.5881 0 9.03876 0.328 7.62942 0.92C6.22009 1.51333 4.94942 2.37067 3.88142 3.43067C2.81476 4.48933 1.94942 5.75067 1.35342 7.14933C0.756089 8.54933 0.425423 10.0867 0.425423 11.6987C0.425423 12.2213 0.460089 12.7387 0.529423 13.252C0.598756 13.7653 0.701423 14.272 0.837423 14.7693C0.973423 15.2667 1.14276 15.7547 1.34276 16.2307C1.54276 16.7067 1.77742 17.1693 2.04142 17.616L1.53609 19.1093L1.02942 20.6013L0.524089 22.0947L0.0174225 23.588C0.00675586 23.616 0.00142253 23.644 8.91927e-05 23.6733C-0.00124414 23.7013 0.00142253 23.7307 0.00808919 23.7573C0.0147559 23.784 0.0240892 23.812 0.0374225 23.8373C0.0507559 23.8627 0.0680892 23.8853 0.0894225 23.9067C0.104089 23.9227 0.120089 23.9347 0.137423 23.9467C0.154756 23.9587 0.173423 23.9693 0.192089 23.976C0.210756 23.9827 0.230756 23.9893 0.250756 23.9933C0.270756 23.9973 0.290756 24 0.312089 24C0.320089 24 0.328089 24 0.336089 23.9987C0.344089 23.9987 0.352089 23.9973 0.360089 23.996C0.368089 23.9947 0.376089 23.9933 0.384089 23.992C0.392089 23.9893 0.400089 23.988 0.408089 23.9853L1.96409 23.4907L3.52009 22.996L5.07742 22.5013L6.63342 22.0067C7.06009 22.2347 7.49876 22.4347 7.95076 22.608C8.40142 22.7813 8.86276 22.9267 9.33209 23.044C9.80142 23.16 10.2774 23.248 10.7588 23.308C11.2401 23.3667 11.7268 23.396 12.2134 23.396C13.8388 23.396 15.3868 23.0693 16.7974 22.476C18.2068 21.884 19.4774 21.0253 20.5454 19.9667C21.6121 18.908 22.4748 17.648 23.0734 16.248C23.6694 14.8493 24.0001 13.312 24.0001 11.6987C24.0001 10.0867 23.6694 8.54933 23.0734 7.14933ZM18.3494 14.812C18.3361 14.9547 18.3134 15.112 18.2761 15.2707C18.2414 15.4307 18.1921 15.5947 18.1361 15.7533C18.0628 15.9573 17.9281 16.152 17.7574 16.3293C17.5868 16.508 17.3801 16.668 17.1654 16.8053C16.9494 16.9427 16.7254 17.056 16.5174 17.1387C16.3094 17.2213 16.1188 17.2733 15.9734 17.2853L15.9521 17.2867L15.9308 17.2893L15.9081 17.292L15.8854 17.2933C15.8521 17.2973 15.8174 17.3 15.7814 17.304C15.7454 17.3067 15.7054 17.3107 15.6668 17.3133C15.6281 17.316 15.5854 17.3187 15.5414 17.32C15.4988 17.3213 15.4534 17.3227 15.4054 17.3227C15.2921 17.3227 15.1548 17.3173 14.9881 17.2987C14.8228 17.2813 14.6268 17.2507 14.3921 17.1987C14.1574 17.1467 13.8841 17.0733 13.5641 16.9707C13.2428 16.868 12.8748 16.736 12.4521 16.5667C12.0121 16.3907 11.5734 16.164 11.1414 15.8933C10.7094 15.6213 10.2828 15.3027 9.86942 14.9427C9.45476 14.5827 9.05209 14.1827 8.66676 13.7453C8.28142 13.3067 7.91209 12.832 7.56409 12.3227C7.55742 12.3147 7.55209 12.3053 7.54676 12.3C7.54142 12.292 7.53742 12.2853 7.53342 12.2787C7.52809 12.272 7.52542 12.2667 7.52276 12.2627C7.51876 12.2573 7.51609 12.2533 7.51342 12.2507C7.42276 12.1307 7.30142 11.9627 7.17076 11.756C7.04009 11.5507 6.90009 11.3053 6.77209 11.0347C6.64276 10.764 6.52676 10.4667 6.44142 10.1533C6.35609 9.84 6.30276 9.51067 6.30276 9.17733C6.30276 8.80667 6.34809 8.476 6.42009 8.184C6.49209 7.892 6.59476 7.64 6.70942 7.42533C6.82542 7.20933 6.95342 7.03333 7.08009 6.89467C7.20542 6.756 7.32942 6.652 7.43342 6.58667C7.53209 6.524 7.66142 6.47067 7.80409 6.424C7.94542 6.37867 8.10009 6.34 8.24676 6.30933C8.39342 6.27867 8.53342 6.25467 8.64676 6.23867C8.76009 6.22267 8.84676 6.21333 8.88809 6.212C8.92142 6.21067 8.94542 6.20933 8.96142 6.208C8.97876 6.208 8.98809 6.20667 8.99342 6.20667C8.99876 6.20667 9.00276 6.20667 9.00676 6.20667C9.00942 6.20667 9.01342 6.20667 9.02276 6.20667C9.10942 6.20667 9.18942 6.22 9.26542 6.24533C9.34009 6.27333 9.40942 6.31333 9.47476 6.368C9.53876 6.42267 9.59876 6.49067 9.65476 6.57333C9.71076 6.656 9.76142 6.756 9.80809 6.868C9.82809 6.91467 9.88942 7.06267 9.96942 7.256C10.0508 7.45067 10.1508 7.69467 10.2508 7.93467C10.3508 8.17467 10.4494 8.41067 10.5254 8.592C10.6028 8.77467 10.6561 8.90133 10.6668 8.92133C10.6788 8.94667 10.6988 8.984 10.7174 9.032C10.7361 9.08 10.7548 9.13867 10.7654 9.20667C10.7774 9.27467 10.7814 9.348 10.7708 9.43067C10.7601 9.512 10.7361 9.59867 10.6908 9.69067L10.6801 9.70933L10.6708 9.72933L10.6614 9.74933L10.6508 9.768C10.6321 9.80667 10.6148 9.844 10.5961 9.87867C10.5774 9.916 10.5574 9.952 10.5348 9.988C10.5134 10.0253 10.4894 10.0613 10.4628 10.1C10.4348 10.1373 10.4041 10.1787 10.3681 10.22C10.3561 10.2333 10.3441 10.248 10.3334 10.26C10.3201 10.2747 10.3081 10.2893 10.2961 10.304C10.2841 10.3173 10.2721 10.332 10.2614 10.3453C10.2508 10.3587 10.2374 10.3733 10.2254 10.388C10.2001 10.4173 10.1761 10.448 10.1508 10.4773C10.1254 10.5067 10.1001 10.5373 10.0748 10.5667C10.0494 10.596 10.0254 10.624 10.0001 10.6507C9.97476 10.6773 9.95076 10.7027 9.92676 10.7267C9.91876 10.7347 9.90942 10.7453 9.89876 10.7547C9.88809 10.7667 9.87742 10.7787 9.86676 10.7907C9.85609 10.8013 9.84676 10.812 9.83876 10.8227C9.83209 10.832 9.82676 10.8413 9.82542 10.848C9.82542 10.848 9.82542 10.8493 9.82542 10.852C9.82542 10.8547 9.82676 10.8587 9.82809 10.8653C9.82942 10.8707 9.83209 10.8787 9.83742 10.8867C9.84142 10.896 9.84676 10.9067 9.85342 10.9173C9.90276 11.0013 10.0281 11.184 10.2174 11.428C10.4081 11.672 10.6628 11.972 10.9708 12.2893C11.2788 12.6053 11.6401 12.9373 12.0401 13.2413C12.4401 13.5453 12.8814 13.82 13.3508 14.024C13.3721 14.0333 13.4028 14.0467 13.4388 14.0613C13.4761 14.0773 13.5201 14.0933 13.5588 14.1107C13.5988 14.1267 13.6374 14.14 13.6654 14.152C13.6934 14.1627 13.7148 14.1707 13.7174 14.1707C13.7228 14.1707 13.7281 14.168 13.7334 14.1653C13.7388 14.1627 13.7441 14.1573 13.7521 14.152C13.7574 14.1467 13.7628 14.1413 13.7708 14.1347C13.7761 14.128 13.7814 14.1227 13.7868 14.116C13.8281 14.0693 13.8921 13.996 13.9668 13.908C14.0428 13.8213 14.1308 13.7173 14.2174 13.612C14.3054 13.508 14.3934 13.4 14.4694 13.3027C14.5454 13.2053 14.6108 13.1173 14.6548 13.0533C14.6934 12.9947 14.7361 12.944 14.7801 12.9013C14.8241 12.8573 14.8708 12.82 14.9201 12.792C14.9694 12.7627 15.0201 12.74 15.0748 12.7253C15.1281 12.7107 15.1854 12.7027 15.2454 12.7027C15.2801 12.7027 15.3161 12.7053 15.3521 12.7107C15.3854 12.716 15.4214 12.7227 15.4548 12.732C15.4881 12.74 15.5214 12.7507 15.5548 12.76C15.5868 12.7707 15.6201 12.7827 15.6508 12.792C15.7294 12.82 15.8974 12.8947 16.1054 12.992C16.3134 13.088 16.5628 13.2067 16.8041 13.324C17.0454 13.44 17.2774 13.5533 17.4521 13.6387C17.6281 13.724 17.7468 13.7813 17.7574 13.7867C17.8148 13.8147 17.8681 13.8413 17.9201 13.868C17.9694 13.8947 18.0174 13.92 18.0601 13.9493C18.1041 13.9773 18.1441 14.008 18.1801 14.0427C18.2134 14.076 18.2454 14.1147 18.2708 14.1573C18.3094 14.2213 18.3348 14.312 18.3468 14.424C18.3614 14.5373 18.3614 14.6693 18.3494 14.812Z" fill="white"/>
</g>
</g>
<defs>
<clipPath id="clip0_50_20">
<rect width="24" height="24" fill="white"/>
</clipPath>
<clipPath id="clip1_50_20">
<rect width="24" height="24" fill="white"/>
</clipPath>
</defs>
</svg>
