<svg width="48" height="48" viewBox="0 0 48 48" fill="none" xmlns="http://www.w3.org/2000/svg">
<path d="M7.48369 24.1397C7.48369 24.1397 8.8041 23.9888 11.3033 19.627C11.3033 19.627 11.3599 19.5507 11.4536 19.4041C12.6937 25.3679 18.6631 24.4028 18.6631 24.4028L19.236 22.0903C15.226 22.992 15.174 18.0859 15.174 18.0859L21.3189 20.2852C21.8642 19.6638 22.2113 18.8924 22.3576 18.0627C22.4159 20.0495 22.2427 22.1914 21.684 24.4028C21.684 24.4028 25.3982 22.9354 27.9674 25.493C27.9674 25.493 27.7219 21.0515 26.4377 16.4591C27.1742 15.9902 28.7488 15.2986 29.0266 17.7473C29.3917 20.9623 33.5568 25.4176 37.4629 19.8901C37.4629 19.8901 35.0157 21.3566 33.6614 18.3113C32.3945 15.4623 31.9027 11.7278 28.4789 12.8241C30.4391 11.2144 32.2725 8.60796 29.9638 6.18491C26.8854 2.9536 22.0862 6.81146 21.241 7.53743C20.6878 7.16373 20.0906 6.87488 19.4445 6.69232C19.4445 6.69232 21.4244 10.2125 22.1263 15.296C21.677 13.9812 20.7358 12.7658 19.2879 11.9944C17.5646 11.0747 15.2748 11.241 13.579 12.4718C13.9378 9.39479 13.8536 5.27466 12.6229 0L6.65115 3.23388C6.65115 3.23388 11.3033 12.8592 7.06742 19.2516C7.06742 19.2516 1.65121 15.7168 5.05375 8.57282L1.58275 7.8957C1.58275 7.8957 -0.207446 10.0822 0.0199672 13.5175C0.283578 17.4876 2.84021 22.8591 7.48369 24.1397ZM27.6212 8.31483C28.9747 10.1156 26.9492 11.7296 25.1905 12.0793C25.1905 12.0793 24.8678 9.95276 23.6977 8.56853C23.6977 8.56853 26.2677 6.51318 27.6212 8.31483ZM18.7088 13.6272C19.8341 14.042 20.4486 15.4134 20.2322 16.8499L15.739 15.08C16.3906 13.8612 17.6134 13.2235 18.7088 13.6272ZM40.258 18.649H40.3335C39.667 21.1303 38.4772 22.5454 36.9947 23.5748C34.2862 25.4553 30.7452 24.4028 30.7452 24.4028C31.5439 26.8087 40.258 31.3205 42.9657 23.3494C45.6734 15.3783 40.7789 9.9262 40.7789 9.9262C41.0307 13.2261 40.9316 15.7228 40.5609 17.6565C39.8464 17.7688 36.0567 18.0002 37.758 9.7762L33.8699 8.19655C33.8699 8.19655 31.9255 19.477 40.258 18.649Z" fill="white"/>
<path d="M43.0693 30.2684C38.4526 29.065 35.5009 30.607 35.5009 30.607C35.5009 30.607 38.2787 31.5464 38.765 36.3976C39.2505 41.248 34.3552 44.5942 34.3552 44.5942C34.3552 44.5942 39.7714 45.6844 43.8334 43.8416C47.8953 41.9997 48 37.4879 48 36.8485C48 36.2091 47.6868 31.4718 43.0693 30.2684ZM41.9007 40.498C41.8189 40.5023 41.7386 40.4998 41.6576 40.4946C42.3642 39.7061 42.797 38.4641 42.7419 37.0833C42.6758 35.4008 41.9055 33.9883 40.8581 33.384C41.0973 33.2932 41.3499 33.2349 41.6135 33.222C43.2416 33.1466 44.6258 34.7143 44.7052 36.7233C44.7847 38.7333 43.5296 40.4235 41.9007 40.498ZM36.6293 36.977C36.6293 33.3343 33.8665 30.3807 30.4585 30.3807C30.1209 30.3807 29.7896 30.4116 29.4678 30.4673C28.5746 28.1008 26.4288 26.4329 23.9225 26.4329C20.8756 26.4329 18.3615 28.8988 17.9846 32.0881C15.3422 32.6143 12.4834 34.4331 11.5281 39.5741L14.7056 40.3643C14.7056 40.3643 15.339 38.4504 17.0379 36.7285L17.1009 36.9239C17.1009 36.9239 17.5179 42.5637 13.2994 43.2408C9.08081 43.9179 6.52891 38.8978 7.83122 35.5705C9.13354 32.2424 11.7893 33.126 11.7893 33.126L16.927 27.8994L14.9999 27.0346C9.56633 24.9663 2.5716 28.8019 2.15454 37.205C1.73827 45.609 10.4351 50.7422 16.4761 46.4558C19.748 44.1339 20.3917 40.72 20.2949 38.0784C21.3021 38.9107 22.558 39.4052 23.9225 39.4052C24.1869 39.4052 24.4458 39.3847 24.7007 39.3495C25.5923 41.8188 27.8334 43.5716 30.4585 43.5716C33.8665 43.5716 36.6293 40.6189 36.6293 36.977ZM25.25 33.4406C25.191 33.5409 25.1335 33.642 25.0784 33.7457C24.6866 34.3371 24.0476 34.7237 23.3237 34.7237C22.7964 34.7237 22.3133 34.5188 21.9372 34.1786C22.3684 34.1074 22.8201 34.0594 23.2977 34.0474L23.1419 32.3555C23.1419 32.3555 22.3605 32.1009 21.1983 31.9732C21.3777 30.877 22.2598 30.043 23.3237 30.043C24.5174 30.043 25.4853 31.0904 25.4853 32.3838C25.4853 32.7643 25.3995 33.1226 25.25 33.4406ZM29.1302 38.8978C28.4865 38.8978 27.9089 38.5944 27.5084 38.1144C28.6502 37.1887 29.4756 35.8311 29.7809 34.2668C30.6717 34.5668 31.3178 35.4668 31.3178 36.5288C31.3178 37.8367 30.3381 38.8978 29.1302 38.8978Z" fill="white"/>
</svg>
