<svg width="40" height="48" viewBox="0 0 40 48" fill="none" xmlns="http://www.w3.org/2000/svg">
<path d="M13 8V13H1V1H9" stroke="#9DE311" stroke-width="2" stroke-miterlimit="10" stroke-linecap="round" stroke-linejoin="round"/>
<path d="M4 7L7 10L14 1" stroke="#9DE311" stroke-width="2" stroke-miterlimit="10" stroke-linecap="round" stroke-linejoin="round"/>
<path d="M13 24V29H1V17H9" stroke="#9DE311" stroke-width="2" stroke-miterlimit="10" stroke-linecap="round" stroke-linejoin="round"/>
<path d="M4 23L7 26L14 17" stroke="#9DE311" stroke-width="2" stroke-miterlimit="10" stroke-linecap="round" stroke-linejoin="round"/>
<path d="M9 35H1V47H13V45" stroke="#9DE311" stroke-width="2" stroke-miterlimit="10" stroke-linecap="round" stroke-linejoin="round"/>
<path d="M11.8369 40.707C12.6609 37.137 14.4709 33.871 17.0619 31.28L33.9909 14.3519C34.9189 13.4239 36.4249 13.4239 37.3529 14.3519L38.1929 15.1919C39.1209 16.1199 39.1209 17.625 38.1929 18.553L21.2639 35.4809C18.6739 38.0729 15.4069 39.883 11.8369 40.707Z" stroke="#9DE311" stroke-width="2" stroke-miterlimit="10" stroke-linecap="round" stroke-linejoin="round"/>
<path d="M31.47 16.874L36.512 21.916C37.44 22.844 37.44 24.349 36.512 25.277L31.47 30.319" stroke="#9DE311" stroke-width="2" stroke-miterlimit="10" stroke-linecap="round" stroke-linejoin="round"/>
<path d="M21.1411 27.202L25.3421 31.404" stroke="#9DE311" stroke-width="2" stroke-miterlimit="10" stroke-linecap="round" stroke-linejoin="round"/>
</svg>
