<svg width="47" height="47" viewBox="0 0 47 47" fill="none" xmlns="http://www.w3.org/2000/svg">
<path d="M9 26H3V20" stroke="#9DE311" stroke-width="2" stroke-miterlimit="10"/>
<path d="M3 26.069C5.303 22.422 9.369 20 14 20C21.18 20 27 25.82 27 33C27 40.18 21.18 46 14 46C6.82 46 1 40.18 1 33C1 31.968 1.121 30.963 1.348 30" stroke="#9DE311" stroke-width="2" stroke-miterlimit="10"/>
<path d="M14 26V34H20" stroke="#9DE311" stroke-width="2" stroke-miterlimit="10"/>
<path d="M11 18V11H36V43H26" stroke="#9DE311" stroke-width="2" stroke-miterlimit="10"/>
<path d="M15 8V6H41V38H39" stroke="#9DE311" stroke-width="2" stroke-miterlimit="10"/>
<path d="M20 3V1H46V33H44" stroke="#9DE311" stroke-width="2" stroke-miterlimit="10"/>
</svg>
